<svg width="189" height="34" viewBox="0 0 189 34" fill="none" xmlns="http://www.w3.org/2000/svg">
<g clip-path="url(#clip0_2110_3661)">
<path d="M17.1819 34C26.6714 34 34.3637 26.3891 34.3637 17V5.1C34.3637 3.7474 33.8206 2.45019 32.854 1.49376C31.8873 0.53732 30.5762 0 29.2092 0L18.041 0V7.4579C18.041 9.1596 18.1458 10.9225 19.0478 12.3709C19.6936 13.4089 20.5575 14.2974 21.5809 14.976C22.6042 15.6546 23.7632 16.1074 24.979 16.3039L25.308 16.3566C25.4437 16.4024 25.5614 16.4891 25.6448 16.6045C25.7282 16.7199 25.773 16.8582 25.773 17C25.773 17.1418 25.7282 17.2801 25.6448 17.3955C25.5614 17.5109 25.4437 17.5976 25.308 17.6434L24.979 17.6961C23.2025 17.9833 21.5621 18.8152 20.2893 20.0746C19.0165 21.3339 18.1757 22.9569 17.8855 24.7146L17.8322 25.0401C17.7859 25.1744 17.6982 25.2909 17.5816 25.3734C17.465 25.4559 17.3252 25.5002 17.1819 25.5002C17.0385 25.5002 16.8988 25.4559 16.7822 25.3734C16.6655 25.2909 16.5779 25.1744 16.5316 25.0401L16.4783 24.7146C16.2797 23.5116 15.822 22.365 15.1362 21.3525C14.4503 20.3399 13.5524 19.4852 12.5033 18.8462C11.0394 17.9537 9.25764 17.85 7.53774 17.85H0.0206909C0.469995 26.8439 7.98103 34 17.1819 34Z" fill="#545660"/>
<path d="M0 16.15H7.53766C9.25756 16.15 11.0393 16.0463 12.5032 15.1538C13.6475 14.4562 14.6108 13.5031 15.3159 12.3709C16.2179 10.9225 16.3227 9.1596 16.3227 7.4579V0H5.15455C3.78748 0 2.4764 0.53732 1.50973 1.49376C0.543067 2.45019 0 3.7474 0 5.1L0 16.15ZM39.9091 1.7C39.9091 2.15087 39.728 2.58327 39.4058 2.90208C39.0836 3.22089 38.6466 3.4 38.1909 3.4C37.7352 3.4 37.2982 3.22089 36.9759 2.90208C36.6537 2.58327 36.4727 2.15087 36.4727 1.7C36.4727 1.24913 36.6537 0.81673 36.9759 0.497919C37.2982 0.179107 37.7352 0 38.1909 0C38.6466 0 39.0836 0.179107 39.4058 0.497919C39.728 0.81673 39.9091 1.24913 39.9091 1.7ZM181.879 10.2884C186.682 10.2884 189 13.6076 189 17.4522V24.673H183.973V18.309C183.973 16.5665 183.331 15.1283 181.488 15.1283C179.645 15.1283 179.031 16.5665 179.031 18.309V24.6721H174.005V18.309C174.005 16.5665 173.39 15.1283 171.547 15.1283C169.704 15.1283 169.061 16.5665 169.061 18.309V24.6721H164.036V17.4514C164.036 13.6068 166.353 10.2875 171.156 10.2875C173.781 10.2875 175.68 11.311 176.546 12.9982C177.467 11.311 179.478 10.2867 181.879 10.2867V10.2884ZM155.003 20.247C156.623 20.247 157.321 18.7808 157.321 17.0374V10.8409H162.347V17.646C162.347 21.7124 159.946 25.0877 155.003 25.0877C150.06 25.0877 147.659 21.7133 147.659 17.646V10.8409H152.685V17.0374C152.685 18.7799 153.383 20.247 155.003 20.247ZM140.268 25.115C137.113 25.115 135.074 24.0363 133.873 21.9343L137.504 19.9147C138.006 20.7995 138.76 21.2423 140.016 21.2423C141.05 21.2423 141.524 20.8828 141.524 20.44C141.524 18.7527 134.152 20.468 134.152 15.102C134.152 12.501 136.386 10.3989 140.184 10.3989C143.507 10.3989 145.322 12.0029 146.132 13.5524L142.502 15.5992C142.195 14.7696 141.245 14.2715 140.296 14.2715C139.57 14.2715 139.179 14.5758 139.179 14.9906C139.179 16.7059 146.551 15.1292 146.551 20.3295C146.551 23.2339 143.674 25.115 140.268 25.115ZM122.707 31.0352H117.68V17.7293C117.68 13.4963 120.891 10.4261 125.359 10.4261C129.716 10.4261 133.039 13.7182 133.039 17.7293C133.039 22.1553 130.078 25.0877 125.639 25.0877C124.605 25.0877 123.572 24.7835 122.707 24.3126V31.0352ZM125.359 20.4128C126.951 20.4128 128.012 19.1956 128.012 17.7565C128.012 16.2911 126.951 15.1011 125.359 15.1011C123.768 15.1011 122.707 16.2911 122.707 17.7574C122.707 19.1956 123.768 20.4128 125.359 20.4128ZM112.645 9.3755C110.997 9.3755 109.629 8.01975 109.629 6.38775C109.629 4.75575 110.997 3.4 112.645 3.4C114.293 3.4 115.661 4.75575 115.661 6.38775C115.661 8.01975 114.293 9.3755 112.645 9.3755ZM110.132 10.8409H115.159V24.673H110.132V10.8409ZM100.488 25.0877C96.1314 25.0877 92.8084 21.7685 92.8084 17.7293C92.8084 13.7182 96.1314 10.3989 100.488 10.3989C104.844 10.3989 108.167 13.7182 108.167 17.7293C108.167 21.7685 104.844 25.0877 100.488 25.0877ZM100.488 20.4128C102.08 20.4128 103.141 19.1956 103.141 17.7565C103.141 16.2911 102.08 15.0739 100.488 15.0739C98.896 15.0739 97.835 16.2911 97.835 17.7565C97.835 19.1956 98.896 20.4128 100.488 20.4128ZM83.3172 31.45C79.8551 31.45 77.3414 29.9285 76.057 27.217L80.2176 25.0044C80.6643 25.9454 81.502 26.9136 83.233 26.9136C85.0491 26.9136 86.2493 25.7788 86.3893 23.7873C85.7192 24.3687 84.6574 24.8106 83.0664 24.8106C79.1841 24.8106 76.0562 21.851 76.0562 17.7013C76.0562 13.691 79.38 10.4261 83.7365 10.4261C88.2046 10.4261 91.4159 13.4972 91.4159 17.7293V23.2067C91.4159 28.186 87.9245 31.45 83.3172 31.45ZM83.6523 20.1365C85.16 20.1365 86.3051 19.1122 86.3051 17.5907C86.3051 16.0973 85.1608 15.1011 83.6523 15.1011C82.1721 15.1011 80.9994 16.0973 80.9994 17.5916C80.9994 19.1131 82.1721 20.1357 83.6523 20.1357V20.1365ZM67.5306 25.0877C63.1741 25.0877 59.8503 21.7685 59.8503 17.7293C59.8503 13.7182 63.1741 10.3989 67.5306 10.3989C71.8862 10.3989 75.21 13.7182 75.21 17.7293C75.21 21.7685 71.887 25.0877 67.5306 25.0877ZM67.5306 20.4128C69.1225 20.4128 70.1834 19.1956 70.1834 17.7565C70.1834 16.2911 69.1225 15.0739 67.5306 15.0739C65.9387 15.0739 64.8777 16.2911 64.8777 17.7565C64.8777 19.1956 65.9387 20.4128 67.5306 20.4128ZM50.6975 6.001V19.9699H59.0195V24.673H49.9991C46.8162 24.673 45.5318 23.0129 45.5318 20.3847V6.001H50.6975Z" fill="#545660"/>
</g>
<defs>
<clipPath id="clip0_2110_3661">
<rect width="189" height="34" fill="white"/>
</clipPath>
</defs>
</svg>
