<svg width="19" height="19" viewBox="0 0 19 19" fill="none" xmlns="http://www.w3.org/2000/svg">
<path d="M13.035 10.6953C14.1455 10.9885 14.9172 11.3594 15.6192 11.8136C16.6574 12.4853 17.1025 13.6958 16.9803 14.8638C16.9286 15.3574 16.5308 15.5935 16.0694 15.4658L15.0278 15.1775C14.2023 14.9489 13.7895 14.8347 13.5378 14.5324C13.2861 14.2302 13.2565 13.8132 13.1972 12.9793L13.035 10.6953ZM13.035 10.6953C10.7873 10.1019 8.21533 10.1012 5.96502 10.6953M5.96502 10.6953C4.85454 10.9885 4.08284 11.3594 3.38085 11.8136C2.34262 12.4853 1.89751 13.6958 2.01971 14.8638C2.07136 15.3574 2.46922 15.5935 2.93058 15.4658L3.97216 15.1775C4.79774 14.9489 5.21053 14.8347 5.46223 14.5324C5.71393 14.2302 5.74355 13.8132 5.80278 12.9793L5.96502 10.6953Z" stroke="white" stroke-width="1.3" stroke-linejoin="round"/>
<path d="M9.5 3.49998V5.64284M14 6.17856L12.2001 7.24998M5 6.17856L6.7999 7.24998" stroke="white" stroke-width="1.3" stroke-linecap="round" stroke-linejoin="round"/>
</svg>
