<svg width="128" height="32" viewBox="0 0 128 32" fill="none" xmlns="http://www.w3.org/2000/svg">
<path d="M16.0352 32H15.9648C7.1619 32 0 24.8381 0 16.0352V15.9648C0 7.16192 7.1619 0 15.9648 0H16.0352C24.8381 0 32 7.16192 32 15.9648V16.0352C32 24.8381 24.8381 32 16.0352 32ZM15.9648 1.08317C7.75872 1.08317 1.08317 7.75874 1.08317 15.9648V16.0352C1.08317 24.2413 7.75872 30.9168 15.9648 30.9168H16.0352C24.2413 30.9168 30.9168 24.2413 30.9168 16.0352V15.9648C30.9168 7.75874 24.2413 1.08317 16.0352 1.08317H15.9648Z" fill="white"/>
<path d="M18.1527 12.4091V15.7767H22.3185L21.6589 20.313H18.1527V30.7645C17.4497 30.8619 16.7305 30.9129 16.0004 30.9129C15.1577 30.9129 14.3302 30.8457 13.5243 30.7157V20.313H9.68231V15.7767H13.5243V11.6563C13.5243 9.10004 15.5964 7.02686 18.1538 7.02686V7.02902C18.1613 7.02902 18.1678 7.02686 18.1754 7.02686H22.3196V10.9501H19.6117C18.8069 10.9501 18.1538 11.6032 18.1538 12.408L18.1527 12.4091Z" fill="white"/>
<path d="M64.0352 32H63.9648C55.1619 32 48 24.8381 48 16.0352V15.9648C48 7.16189 55.1619 0 63.9648 0H64.0352C72.8381 0 80 7.16189 80 15.9648V16.0352C80 24.8381 72.8381 32 64.0352 32ZM63.9648 1.08317C55.7587 1.08317 49.0832 7.75871 49.0832 15.9648V16.0352C49.0832 24.2413 55.7587 30.9168 63.9648 30.9168H64.0352C72.2413 30.9168 78.9168 24.2413 78.9168 16.0352V15.9648C78.9168 7.75871 72.2413 1.08317 64.0352 1.08317H63.9648Z" fill="white"/>
<path d="M68.784 6.83057H59.2175C56.5746 6.83057 54.4245 8.98065 54.4245 11.6236V20.3756C54.4245 23.0185 56.5746 25.1686 59.2175 25.1686H68.784C71.427 25.1686 73.5771 23.0185 73.5771 20.3756V11.6236C73.5771 8.98065 71.427 6.83057 68.784 6.83057ZM56.1153 11.6236C56.1153 9.91326 57.5072 8.52138 59.2175 8.52138H68.784C70.4944 8.52138 71.8862 9.91326 71.8862 11.6236V20.3756C71.8862 22.0859 70.4944 23.4778 68.784 23.4778H59.2175C57.5072 23.4778 56.1153 22.0859 56.1153 20.3756V11.6236Z" fill="white"/>
<path d="M64.0013 20.4576C66.459 20.4576 68.4596 18.4581 68.4596 15.9993C68.4596 13.5405 66.4601 11.541 64.0013 11.541C61.5425 11.541 59.543 13.5405 59.543 15.9993C59.543 18.4581 61.5425 20.4576 64.0013 20.4576ZM64.0013 13.2329C65.5275 13.2329 66.7688 14.4742 66.7688 16.0004C66.7688 17.5266 65.5275 18.7679 64.0013 18.7679C62.4751 18.7679 61.2338 17.5266 61.2338 16.0004C61.2338 14.4742 62.4751 13.2329 64.0013 13.2329Z" fill="white"/>
<path d="M68.8712 12.2604C69.533 12.2604 70.0724 11.7221 70.0724 11.0592C70.0724 10.3963 69.534 9.85791 68.8712 9.85791C68.2083 9.85791 67.6699 10.3963 67.6699 11.0592C67.6699 11.7221 68.2083 12.2604 68.8712 12.2604Z" fill="white"/>
<path d="M112.035 32H111.965C103.162 32 96 24.8381 96 16.0352V15.9648C96 7.16191 103.162 0 111.965 0H112.035C120.838 0 128 7.16191 128 15.9648V16.0352C128 24.8381 120.838 32 112.035 32ZM111.965 1.08317C103.759 1.08317 97.0832 7.75873 97.0832 15.9648V16.0352C97.0832 24.2413 103.759 30.9168 111.965 30.9168H112.035C120.241 30.9168 126.917 24.2413 126.917 16.0352V15.9648C126.917 7.75873 120.241 1.08317 112.035 1.08317H111.965Z" fill="white"/>
<path d="M103.915 10.8175C103.507 10.4395 103.305 9.97156 103.305 9.41481C103.305 8.85806 103.509 8.36954 103.915 7.99043C104.322 7.6124 104.846 7.42285 105.489 7.42285C106.131 7.42285 106.635 7.6124 107.041 7.99043C107.448 8.36845 107.651 8.84398 107.651 9.41481C107.651 9.98564 107.447 10.4395 107.041 10.8175C106.634 11.1955 106.117 11.3851 105.489 11.3851C104.86 11.3851 104.322 11.1955 103.915 10.8175ZM107.308 12.986V24.5759H103.646V12.986H107.308Z" fill="white"/>
<path d="M119.499 14.1309C120.298 14.9974 120.696 16.1867 120.696 17.701V24.3711H117.218V18.1711C117.218 17.4074 117.02 16.8139 116.625 16.3914C116.229 15.969 115.696 15.7567 115.029 15.7567C114.362 15.7567 113.829 15.9679 113.434 16.3914C113.038 16.8139 112.84 17.4074 112.84 18.1711V24.3711H109.341V12.9535H112.84V14.4677C113.194 13.963 113.672 13.5644 114.272 13.2708C114.872 12.9773 115.547 12.8311 116.297 12.8311C117.634 12.8311 118.702 13.2643 119.499 14.1309Z" fill="white"/>
</svg>
