<svg width="133" height="40" viewBox="0 0 133 40" fill="none" xmlns="http://www.w3.org/2000/svg">
<path fill-rule="evenodd" clip-rule="evenodd" d="M70.2657 36.3228H66.043V18.189H70.2297V25.7308H77.5206V18.1981H81.719V36.2977H77.572V28.701H70.2657C70.266 31.2132 70.266 33.7376 70.266 36.3228H70.2657ZM92.8604 18.1753C93.0034 18.1668 93.1286 18.1522 93.2532 18.1522C95.4014 18.151 97.5496 18.1461 99.6978 18.1545C100.725 18.1586 101.729 18.3277 102.696 18.6763C105.184 19.5726 106.551 21.5699 106.461 24.2169C106.439 24.8297 106.37 25.4551 106.215 26.046C105.612 28.3388 103.976 29.5517 101.776 30.0374C100.811 30.2503 99.7977 30.2529 98.8039 30.3176C98.2366 30.3543 97.6648 30.3242 97.034 30.3242V36.3955H92.8602C92.8606 30.3237 92.8606 24.2589 92.8606 18.1753H92.8604ZM63.7123 19.9514C63.3234 20.6747 62.9892 21.3618 62.5941 22.0118C62.2407 22.5932 61.7739 22.6569 61.0972 22.353C60.3652 22.0242 59.6389 21.6434 58.8692 21.4518C58.339 21.3199 57.7223 21.3955 57.1739 21.5146C56.4809 21.665 56.0427 22.146 55.9289 22.8879C55.8137 23.6419 56.0995 24.202 56.7606 24.5235C57.3879 24.8283 58.0515 25.0596 58.7035 25.3129C59.5926 25.6587 60.515 25.9337 61.371 26.3478C63.2423 27.2533 64.1062 28.9906 63.9353 31.0725C63.6619 34.4005 61.1704 36.4734 57.9224 36.5908C55.6774 36.6723 53.6413 36.0456 51.8211 34.7248C51.6346 34.5894 51.4687 34.4257 51.2548 34.2419C51.7006 33.5301 52.1061 32.8339 52.5617 32.1722C52.8882 31.6984 53.4325 31.5972 53.9879 31.8738C54.3863 32.0726 54.7568 32.3272 55.1436 32.5497C56.1934 33.1534 57.2998 33.4395 58.5086 33.1452C59.325 32.9463 59.8038 32.4545 59.9286 31.6945C60.0689 30.8413 59.91 30.0897 59.0811 29.6794C58.4577 29.3707 57.7854 29.1591 57.1316 28.9139C56.2186 28.5715 55.2643 28.3154 54.3964 27.8839C52.8829 27.1313 52.1504 25.817 51.9891 24.1438C51.6511 20.6363 54.2104 18.339 57.3182 18.0523C59.2703 17.8725 61.1339 18.2205 62.8168 19.2934C63.117 19.4846 63.3924 19.7145 63.7127 19.9517L63.7123 19.9514ZM129.675 18.1873V21.4554H124.679V36.2984H120.44V21.5032H115.391V18.1873H129.675ZM89.349 36.316H85.157V18.1822H89.349V36.316ZM113.111 36.3164H108.919V18.1822H113.111V36.3164ZM97.0609 21.3085C98.1302 21.3619 99.1571 21.338 100.16 21.4822C101.424 21.6641 102.126 22.5045 102.226 23.7922C102.258 24.2128 102.247 24.6515 102.164 25.0637C101.916 26.3108 101.077 26.9983 99.6533 27.0894C98.8069 27.1438 97.9542 27.0993 97.0612 27.0993V21.3085H97.0609Z" fill="white"/>
<path fill-rule="evenodd" clip-rule="evenodd" d="M3.33304 23.8123C6.01026 26.7582 9.44646 28.1719 13.096 29.1474C17.1379 30.2281 21.2598 30.5284 25.4307 30.2313C32.3164 29.7407 38.6568 27.6548 44.3881 23.7664C44.4555 23.7207 44.5287 23.6836 44.6654 23.6038C44.682 23.8074 44.7088 23.9617 44.705 24.1152C44.6258 27.1768 43.8273 29.9987 41.9293 32.4525C40.8046 33.9064 39.4093 35.0447 37.8313 35.9638C37.6205 36.0863 37.3564 36.1604 37.112 36.1757C34.8823 36.3173 32.6531 36.4989 30.4209 36.5569C26.7407 36.6521 23.058 36.7099 19.3768 36.6965C16.1426 36.6841 12.9114 36.5044 9.69993 36.0849C9.42577 36.0493 9.12414 35.9305 8.91168 35.7567C5.95123 33.3322 4.23141 30.1854 3.57858 26.4326C3.47293 25.8242 3.40573 25.2085 3.33738 24.5944C3.31158 24.3639 3.33317 24.1275 3.33317 23.8119L3.33304 23.8123Z" fill="#B5B5B5"/>
<path fill-rule="evenodd" clip-rule="evenodd" d="M37.5125 25.9994C33.1513 27.8757 26.3146 29.2983 23.4225 28.9707C23.5045 27.8306 23.5919 26.6893 23.667 25.5473C23.7786 23.8461 23.9488 22.1452 23.9741 20.4422C24.0249 17.0323 24.0592 13.6197 23.9747 10.2111C23.9206 8.02251 23.6904 5.83217 23.0046 3.72457C22.9803 3.65029 22.9892 3.56537 22.9678 3.30103C23.3348 3.58279 23.6334 3.73981 23.8343 3.97905C24.491 4.76057 25.1553 5.54183 25.7399 6.37713C28.5872 10.4452 31.0781 14.7366 33.5747 19.0237C34.7315 21.0101 35.852 23.0179 36.9863 25.0173C37.1633 25.329 37.3253 25.649 37.5126 25.9996L37.5125 25.9994ZM26.8585 10.7267C26.8166 10.7408 26.7746 10.7553 26.7326 10.7693C26.7326 10.9034 26.7042 11.0447 26.7373 11.1702C26.8832 11.7213 27.0307 12.2729 27.2065 12.8152C27.9577 15.1317 28.7521 17.4349 29.4663 19.7629C29.9676 21.3971 30.3807 23.0596 30.8005 24.7179C30.9534 25.3226 31.0116 25.9512 31.1219 26.6229C32.5515 26.5778 33.8977 26.2608 35.2229 25.8283C35.553 25.7204 35.5599 25.4808 35.4518 25.214C35.3164 24.8804 35.1886 24.5404 35.0179 24.2244C34.0706 22.47 33.1626 20.6916 32.144 18.9795C30.6717 16.5047 29.1213 14.0765 27.5908 11.6365C27.3854 11.3087 27.1043 11.0287 26.8584 10.7266L26.8585 10.7267Z" fill="#E88826"/>
<path fill-rule="evenodd" clip-rule="evenodd" d="M9.54077 26.1501C11.3068 23.1756 12.9901 20.2374 14.7764 17.3636C16.3052 14.9044 17.9304 12.5038 19.5608 10.1099C20.036 9.41159 20.6413 8.79069 21.2484 8.1977C21.8191 7.64019 22.1836 7.74816 22.3553 8.5184C22.5307 9.30504 22.6593 10.1117 22.7073 10.916C22.918 14.456 22.8146 17.9966 22.6408 21.5356C22.5501 23.3893 22.453 25.2424 22.3493 27.0953C22.3161 27.6898 22.2526 28.2826 22.1929 28.9934C21.6543 28.9972 21.1317 29.0373 20.6149 28.998C17.7673 28.7828 14.9618 28.3128 12.2262 27.4803C11.5791 27.2836 10.955 27 10.3392 26.7157C10.062 26.588 9.83052 26.36 9.54077 26.1502V26.1501ZM17.7448 15.6524C17.604 15.844 17.5395 15.9214 17.4867 16.0055C16.3382 17.8361 15.1669 19.6531 14.0531 21.5046C13.4079 22.5766 12.843 23.6981 12.267 24.8104C11.9783 25.3681 12.1099 25.7271 12.6576 25.9908C13.7011 26.4931 14.8141 26.7183 15.922 26.9767C16.2276 27.0484 16.4315 26.9357 16.4892 26.5601C16.631 25.644 16.8341 24.7376 16.9834 23.8218C17.1833 22.5936 17.3868 21.3647 17.5314 20.1294C17.6834 18.8291 17.7722 17.5208 17.8751 16.2151C17.8866 16.0703 17.8093 15.9187 17.7448 15.6526V15.6524Z" fill="#E88826"/>
<path fill-rule="evenodd" clip-rule="evenodd" d="M26.8579 10.7271C27.1039 11.0291 27.3849 11.3094 27.5903 11.6369C29.1205 14.0767 30.671 16.505 32.1435 18.9798C33.1619 20.6919 34.07 22.4704 35.0173 24.2245C35.1879 24.5405 35.3159 24.8802 35.4511 25.2143C35.5591 25.481 35.5521 25.7207 35.222 25.8285C33.8969 26.2611 32.5509 26.5784 31.121 26.6232C31.0109 25.9517 30.9528 25.323 30.7997 24.7182C30.3801 23.0603 29.9668 21.3978 29.4656 19.7634C28.7515 17.4354 27.9572 15.1322 27.2059 12.8157C27.03 12.2736 26.8824 11.7219 26.7365 11.1706C26.7033 11.0453 26.7317 10.9042 26.7317 10.77C26.7738 10.7559 26.816 10.7418 26.8578 10.7274L26.8579 10.7271ZM17.7442 15.6522C17.8088 15.9182 17.886 16.07 17.8745 16.2144C17.7716 17.5202 17.6828 18.8284 17.5308 20.1288C17.3864 21.3642 17.1828 22.593 16.9827 23.8212C16.8338 24.7365 16.6304 25.6433 16.4888 26.5594C16.431 26.9352 16.2272 27.0478 15.9216 26.9762C14.814 26.7175 13.7007 26.4926 12.6571 25.9903C12.1096 25.7264 11.9778 25.3676 12.2666 24.8099C12.8427 23.6976 13.4077 22.5763 14.0526 21.5041C15.1666 19.6526 16.3377 17.8356 17.4861 16.0049C17.539 15.9208 17.6036 15.8435 17.7442 15.6521V15.6522Z" fill="#F7A81F"/>
</svg>
