<svg width="128" height="32" viewBox="0 0 128 32" fill="none" xmlns="http://www.w3.org/2000/svg">
<path d="M16.0352 32H15.9648C7.1619 32 0 24.8381 0 16.0352V15.9648C0 7.16192 7.1619 0 15.9648 0H16.0352C24.8381 0 32 7.16192 32 15.9648V16.0352C32 24.8381 24.8381 32 16.0352 32ZM15.9648 1.08317C7.75872 1.08317 1.08317 7.75874 1.08317 15.9648V16.0352C1.08317 24.2413 7.75872 30.9168 15.9648 30.9168H16.0352C24.2413 30.9168 30.9168 24.2413 30.9168 16.0352V15.9648C30.9168 7.75874 24.2413 1.08317 16.0352 1.08317H15.9648Z" fill="white"/>
<path d="M18.153 12.409V15.7765H22.3188L21.6592 20.3129H18.153V30.7643C17.45 30.8618 16.7308 30.9127 16.0007 30.9127C15.158 30.9127 14.3305 30.8456 13.5246 30.7156V20.3129H9.68262V15.7765H13.5246V11.6562C13.5246 9.09991 15.5967 7.02673 18.1541 7.02673V7.0289C18.1616 7.0289 18.1681 7.02673 18.1757 7.02673H22.3199V10.95H19.612C18.8072 10.95 18.1541 11.6031 18.1541 12.4079L18.153 12.409Z" fill="white"/>
<path d="M64.0352 32H63.9648C55.1619 32 48 24.8381 48 16.0352V15.9648C48 7.16189 55.1619 0 63.9648 0H64.0352C72.8381 0 80 7.16189 80 15.9648V16.0352C80 24.8381 72.8381 32 64.0352 32ZM63.9648 1.08317C55.7587 1.08317 49.0832 7.75871 49.0832 15.9648V16.0352C49.0832 24.2413 55.7587 30.9168 63.9648 30.9168H64.0352C72.2413 30.9168 78.9168 24.2413 78.9168 16.0352V15.9648C78.9168 7.75871 72.2413 1.08317 64.0352 1.08317H63.9648Z" fill="white"/>
<path d="M68.7843 6.83032H59.2178C56.5749 6.83032 54.4248 8.98041 54.4248 11.6233V20.3753C54.4248 23.0182 56.5749 25.1683 59.2178 25.1683H68.7843C71.4273 25.1683 73.5774 23.0182 73.5774 20.3753V11.6233C73.5774 8.98041 71.4273 6.83032 68.7843 6.83032ZM56.1156 11.6233C56.1156 9.91302 57.5075 8.52113 59.2178 8.52113H68.7843C70.4947 8.52113 71.8865 9.91302 71.8865 11.6233V20.3753C71.8865 22.0856 70.4947 23.4775 68.7843 23.4775H59.2178C57.5075 23.4775 56.1156 22.0856 56.1156 20.3753V11.6233Z" fill="white"/>
<path d="M64.0013 20.4576C66.459 20.4576 68.4596 18.4581 68.4596 15.9993C68.4596 13.5405 66.4601 11.541 64.0013 11.541C61.5425 11.541 59.543 13.5405 59.543 15.9993C59.543 18.4581 61.5425 20.4576 64.0013 20.4576ZM64.0013 13.2329C65.5275 13.2329 66.7688 14.4742 66.7688 16.0004C66.7688 17.5266 65.5275 18.7679 64.0013 18.7679C62.4751 18.7679 61.2338 17.5266 61.2338 16.0004C61.2338 14.4742 62.4751 13.2329 64.0013 13.2329Z" fill="white"/>
<path d="M68.8712 12.2604C69.533 12.2604 70.0724 11.7221 70.0724 11.0592C70.0724 10.3963 69.534 9.85791 68.8712 9.85791C68.2083 9.85791 67.6699 10.3963 67.6699 11.0592C67.6699 11.7221 68.2083 12.2604 68.8712 12.2604Z" fill="white"/>
<path d="M112.035 32H111.965C103.162 32 96 24.8381 96 16.0352V15.9648C96 7.16191 103.162 0 111.965 0H112.035C120.838 0 128 7.16191 128 15.9648V16.0352C128 24.8381 120.838 32 112.035 32ZM111.965 1.08317C103.759 1.08317 97.0832 7.75873 97.0832 15.9648V16.0352C97.0832 24.2413 103.759 30.9168 111.965 30.9168H112.035C120.241 30.9168 126.917 24.2413 126.917 16.0352V15.9648C126.917 7.75873 120.241 1.08317 112.035 1.08317H111.965Z" fill="white"/>
<path d="M103.914 10.8176C103.507 10.4396 103.305 9.97168 103.305 9.41493C103.305 8.85818 103.508 8.36966 103.914 7.99055C104.322 7.61253 104.846 7.42297 105.488 7.42297C106.131 7.42297 106.634 7.61253 107.041 7.99055C107.448 8.36858 107.65 8.8441 107.65 9.41493C107.65 9.98576 107.447 10.4396 107.041 10.8176C106.633 11.1957 106.117 11.3852 105.488 11.3852C104.86 11.3852 104.322 11.1957 103.914 10.8176ZM107.308 12.9861V24.576H103.646V12.9861H107.308Z" fill="white"/>
<path d="M119.499 14.1311C120.297 14.9976 120.696 16.187 120.696 17.7012V24.3714H117.218V18.1713C117.218 17.4077 117.019 16.8141 116.624 16.3917C116.229 15.9692 115.696 15.7569 115.029 15.7569C114.361 15.7569 113.828 15.9682 113.433 16.3917C113.038 16.8141 112.839 17.4077 112.839 18.1713V24.3714H109.341V12.9537H112.839V14.468C113.194 13.9632 113.671 13.5646 114.271 13.2711C114.871 12.9775 115.546 12.8313 116.297 12.8313C117.634 12.8313 118.702 13.2646 119.499 14.1311Z" fill="white"/>
</svg>
