<svg width="24" height="24" viewBox="0 0 24 24" fill="none" xmlns="http://www.w3.org/2000/svg">
<path d="M7.3276 3.01517C8.13096 2.91542 9.03474 3.3144 9.43642 4.01262L9.93852 4.91032C10.4406 5.80802 10.1394 6.80547 9.43642 7.40394L8.8339 7.80292C8.03054 8.50113 7.72928 9.59832 8.3318 10.496C9.03474 11.4935 9.73768 12.4909 10.6415 13.3886C11.5452 14.2863 12.5494 15.0843 13.5536 15.6828C14.4574 16.2812 15.562 15.982 16.1646 15.184L16.5662 14.6853C17.1688 13.8873 18.2734 13.6879 19.0767 14.1866L19.9805 14.6853C20.6835 15.0843 21.0851 15.8822 20.9847 16.7799L20.6835 18.3759L20.4826 19.3733C20.2818 20.3708 19.2776 21.1687 18.2734 20.9692C16.3654 20.7697 14.5578 20.1713 12.8507 19.3733C11.0431 18.5754 9.43642 17.3784 7.93012 15.982C6.42382 14.5856 5.3192 12.8899 4.51584 11.0945C3.8129 9.39883 3.21038 7.50368 3.00954 5.60853C2.90912 4.61108 3.61206 3.61364 4.61626 3.41415L7.3276 3.01517Z" stroke="white" stroke-width="1.5" stroke-linecap="round" stroke-linejoin="round"/>
</svg>
