<svg width="24" height="24" viewBox="0 0 24 24" fill="none" xmlns="http://www.w3.org/2000/svg">
<path d="M21 9.09998V18C21 19.7 19.7 21 18 21H6C4.3 21 3 19.7 3 18V9.09998" stroke="white" stroke-width="1.5" stroke-linecap="round" stroke-linejoin="round"/>
<path d="M3 9.09998L9.7 15L12 17L14.3 15L21 9.09998" stroke="white" stroke-width="1.5" stroke-linecap="round" stroke-linejoin="round"/>
<path d="M3 9.1L6 6.5" stroke="white" stroke-width="1.5" stroke-linecap="round" stroke-linejoin="round"/>
<path d="M18 6.5L21 9.1" stroke="white" stroke-width="1.5" stroke-linecap="round" stroke-linejoin="round"/>
<path d="M9.70039 15L3.90039 20.2" stroke="white" stroke-width="1.5" stroke-linecap="round" stroke-linejoin="round"/>
<path d="M20.0998 20.2L14.2998 15" stroke="white" stroke-width="1.5" stroke-linecap="round" stroke-linejoin="round"/>
<path d="M18 11.8V6.5V5C18 3.9 17.1 3 16 3H8C6.9 3 6 3.9 6 5V6.5V11.8" stroke="white" stroke-width="1.5" stroke-linecap="round" stroke-linejoin="round"/>
<path d="M14 9C12.9 10.3333 11.1 10.3333 10 9" stroke="white" stroke-width="1.5" stroke-miterlimit="10" stroke-linecap="round" stroke-linejoin="round"/>
</svg>
