<svg width="68" height="68" viewBox="0 0 68 68" fill="none" xmlns="http://www.w3.org/2000/svg">
<rect x="0.5" y="0.5" width="67" height="67" rx="33.5" fill="#204199"/>
<rect x="0.5" y="0.5" width="67" height="67" rx="33.5" stroke="#4D67AD"/>
<path d="M44.5978 35.9334C35.2422 37.4719 33.5789 39.4262 32.3315 50.8193C32.2899 51.1935 31.7494 51.1935 31.7078 50.8193C30.4604 39.4262 28.7972 37.5135 19.4416 35.9334C19.0673 35.8919 19.0673 35.3513 19.4416 35.3097C28.7972 33.7713 30.4604 31.8586 31.7078 20.4655C31.7494 20.0913 32.2899 20.0913 32.3315 20.4655C33.5789 31.8586 35.2422 33.7297 44.5978 35.3097C44.9304 35.3513 44.9304 35.8503 44.5978 35.9334Z" fill="white"/>
<path d="M48.5895 22.7941C45.6789 23.3762 44.8473 24.3325 44.3483 27.7422C44.3067 28.1164 43.7662 28.1164 43.7246 27.7422C43.2256 24.3325 42.394 23.3762 39.4834 22.7525C39.1507 22.6693 39.1507 22.2119 39.4834 22.1288C42.3524 21.5467 43.2256 20.5903 43.7246 17.1807C43.7662 16.8065 44.3067 16.8065 44.3483 17.1807C44.8473 20.5903 45.6789 21.5467 48.5895 22.1704C48.9222 22.2535 48.9222 22.7525 48.5895 22.7941Z" fill="white"/>
</svg>
