<svg width="71" height="75" viewBox="0 0 71 75" fill="none" xmlns="http://www.w3.org/2000/svg">
<g clip-path="url(#clip0_2168_1513)">
<path d="M3.78801 74.9723L1.8772 74.9715C1.24278 74.9715 0.772224 74.8273 0.462999 74.538C0.153773 74.2487 0 73.8051 0 73.209L0.010083 73.0966L1.24195 72.9541V73.0211C1.24195 73.354 1.31421 73.5846 1.45958 73.7154C1.60495 73.8462 1.86123 73.9116 2.22592 73.9125L3.43845 73.9133C3.79473 73.9133 4.04598 73.8462 4.19219 73.7121C4.34008 73.5796 4.41403 73.3448 4.41403 73.0144V72.8434C4.41403 72.5675 4.35017 72.3747 4.22496 72.2673C4.09556 72.1583 3.83758 72.0778 3.44937 72.0309L1.73267 71.7827C1.09909 71.6955 0.660464 71.5295 0.418461 71.288C0.166375 71.0373 0.0411732 70.6558 0.0411732 70.1468V69.5305C0.0411732 68.9217 0.193259 68.4715 0.497443 68.1805C0.801627 67.8896 1.27219 67.7445 1.90997 67.7453L3.74852 67.7462C4.38209 67.7462 4.85181 67.8921 5.15684 68.1814C5.4627 68.4706 5.61563 68.9142 5.61479 69.5154V69.6261L4.37285 69.7711V69.7041C4.37285 69.3804 4.30058 69.1532 4.15437 69.0207C4.009 68.8882 3.7586 68.8228 3.40232 68.822L2.27717 68.8211C1.91165 68.8211 1.65536 68.8882 1.50579 69.0207C1.35706 69.1548 1.28228 69.3879 1.28228 69.72V69.8416C1.28228 70.1091 1.34614 70.296 1.47134 70.4034C1.60075 70.5124 1.86291 70.5962 2.25701 70.6549L3.97372 70.9031C4.60729 70.9903 5.04507 71.1563 5.28792 71.3978C5.53244 71.6435 5.65596 72.0267 5.65596 72.5499V73.2023C5.65596 73.8035 5.50219 74.2487 5.19633 74.5397C4.89046 74.8273 4.42158 74.9723 3.78801 74.9723Z" fill="#0C0D0D"/>
<path d="M11.1456 74.9757L9.23475 74.9748C8.60034 74.9748 8.12977 74.8306 7.82054 74.5413C7.51132 74.2521 7.35754 73.8085 7.35754 73.2123L7.36763 73.1L8.59949 72.9574V73.0245C8.59949 73.3574 8.67175 73.588 8.81712 73.7188C8.96249 73.8496 9.21878 73.915 9.58346 73.9158L10.796 73.9167C11.1523 73.9167 11.4035 73.8496 11.5497 73.7154C11.6976 73.5829 11.7716 73.3482 11.7716 73.0178V72.8467C11.7716 72.5709 11.7077 72.378 11.5825 72.2707C11.4531 72.1617 11.1951 72.0812 10.8069 72.0342L9.09021 71.786C8.45664 71.6988 8.01802 71.5328 7.77602 71.2913C7.52393 71.0406 7.39872 70.6591 7.39872 70.1501V69.5339C7.39872 68.9251 7.55081 68.4748 7.855 68.1839C8.15918 67.8929 8.62975 67.7479 9.26752 67.7487L11.1061 67.7495C11.7396 67.7495 12.2094 67.8954 12.5144 68.1847C12.8202 68.474 12.9732 68.9176 12.9723 69.5188V69.6294L11.7304 69.7745V69.7074C11.7304 69.3838 11.6581 69.1565 11.5119 69.024C11.3666 68.8916 11.1161 68.8262 10.7599 68.8253L9.63473 68.8245C9.2692 68.8245 9.01291 68.8916 8.86334 69.024C8.71461 69.1582 8.63982 69.3913 8.63982 69.7233V69.8449C8.63982 70.1124 8.70368 70.2994 8.82889 70.4067C8.95829 70.5157 9.22046 70.5996 9.61455 70.6583L11.3313 70.9065C11.9648 70.9937 12.4026 71.1597 12.6455 71.4012C12.89 71.6469 13.0135 72.03 13.0135 72.5533V73.2056C13.0135 73.8068 12.8597 74.2521 12.5539 74.543C12.248 74.8315 11.7791 74.9765 11.1456 74.9757Z" fill="#0C0D0D"/>
<path d="M23.6642 74.8868L22.3836 74.886L21.7592 73.0228L18.9266 73.0211L18.2998 74.8834L17.0284 74.8826L19.4476 67.8552L21.2467 67.856L23.6642 74.8868ZM20.3509 68.8396L19.2964 71.9605L21.4013 71.9613L20.3509 68.8396Z" fill="#0C0D0D"/>
<path d="M25.1581 67.8585L28.705 67.8602C29.3411 67.8602 29.8125 68.0061 30.1158 68.2971C30.42 68.588 30.5713 69.0391 30.5713 69.6479L30.5696 73.1134C30.5696 73.7146 30.4158 74.1598 30.1099 74.4525C29.8049 74.7451 29.3352 74.8902 28.7008 74.8893L25.1539 74.8876L25.1581 67.8585ZM29.3268 72.9256L29.3285 69.8365C29.3285 69.5037 29.2554 69.2714 29.1075 69.1347C28.9613 68.9981 28.7058 68.931 28.3437 68.931L26.3984 68.9301L26.3959 73.8295L28.3411 73.8303C28.7033 73.8303 28.9587 73.7615 29.105 73.6274C29.2528 73.4907 29.3268 73.2559 29.3268 72.9256Z" fill="#0C0D0D"/>
<path d="M34.9189 73.7406L36.8869 67.8652L38.1725 67.8661L35.7718 74.8935L34.0643 74.8927L31.6821 67.8627L32.9535 67.8636L34.9189 73.7406Z" fill="#0C0D0D"/>
<path d="M40.8942 74.896L39.6522 74.8952L39.6564 67.8661L40.8984 67.8669L40.8942 74.896Z" fill="#0C0D0D"/>
<path d="M46.6082 74.9958L44.6974 74.995C44.063 74.995 43.5924 74.8507 43.2832 74.5615C42.974 74.2722 42.8202 73.8286 42.8202 73.2333L42.8303 73.1209L44.0621 72.9784V73.0455C44.0621 73.3784 44.1344 73.6089 44.2798 73.7397C44.4251 73.8706 44.6814 73.936 45.0461 73.9368L46.2586 73.9376C46.6149 73.9376 46.8662 73.8705 47.0124 73.7364C47.1603 73.6039 47.2342 73.3691 47.2342 73.0388V72.8677C47.2342 72.5918 47.1704 72.399 47.0452 72.2917C46.9157 72.1827 46.6578 72.1022 46.2696 72.0552L44.5529 71.807C43.9193 71.7198 43.4807 71.5538 43.2387 71.3123C42.9866 71.0616 42.8614 70.6801 42.8614 70.1711V69.5548C42.8614 68.9461 43.0135 68.4958 43.3176 68.2048C43.6218 67.9139 44.0924 67.7688 44.7302 67.7697L46.5687 67.7705C47.2023 67.7705 47.672 67.9164 47.977 68.2057C48.2829 68.495 48.4358 68.9385 48.435 69.5397V69.6504L47.193 69.7955V69.7284C47.193 69.4047 47.1208 69.1775 46.9746 69.045C46.8292 68.9125 46.5788 68.8471 46.2225 68.8463L45.0974 68.8454C44.7318 68.8454 44.4756 68.9125 44.326 69.045C44.1773 69.1792 44.1025 69.4123 44.1025 69.7443V69.8659C44.1025 70.1334 44.1663 70.3204 44.2915 70.4277C44.4209 70.5367 44.6831 70.6205 45.0772 70.6792L46.7939 70.9274C47.4275 71.0146 47.8653 71.1807 48.1081 71.4221C48.3526 71.6678 48.4762 72.051 48.4762 72.5742V73.2266C48.4762 73.8278 48.3224 74.273 48.0165 74.564C47.7115 74.8507 47.2426 74.9958 46.6082 74.9958Z" fill="#0C0D0D"/>
<path d="M52.17 67.7722L54.0573 67.773C54.6934 67.773 55.1648 67.9189 55.4681 68.2099C55.7723 68.5008 55.9236 68.9519 55.9236 69.5607L55.9219 73.2291C55.9219 73.8303 55.7681 74.2755 55.4623 74.5665C55.1572 74.8549 54.6875 75 54.0531 75L52.1658 74.9992C51.5297 74.9992 51.0566 74.8533 50.7499 74.564C50.4424 74.273 50.2894 73.8278 50.2903 73.2266L50.292 69.5573C50.292 68.9486 50.4457 68.4983 50.7533 68.2074C51.0608 67.9164 51.5339 67.7713 52.17 67.7722ZM54.6808 73.0413L54.6825 69.7485C54.6825 69.4156 54.6094 69.1834 54.4623 69.0484C54.3153 68.9159 54.064 68.848 53.7077 68.848L52.5154 68.8471C52.1532 68.8471 51.8986 68.9142 51.7532 69.0467C51.6087 69.1808 51.5356 69.4139 51.5356 69.746L51.5339 73.0388C51.5339 73.3691 51.6062 73.6039 51.7515 73.7364C51.8969 73.8705 52.1515 73.9385 52.5137 73.9385L53.7061 73.9393C54.0623 73.9393 54.3136 73.8722 54.4606 73.7381C54.606 73.6064 54.6799 73.3716 54.6808 73.0413Z" fill="#0C0D0D"/>
<path d="M63.9349 74.9086L62.4744 74.9078L60.3611 72.2011L59.1587 72.2003L59.157 74.9061L57.915 74.9052L57.9192 67.8761L61.4661 67.8778C62.1022 67.8778 62.5736 68.0237 62.8769 68.3147C63.1803 68.6056 63.3324 69.0567 63.3324 69.6655L63.3315 70.4252C63.3315 70.961 63.2088 71.3752 62.9668 71.6645C62.7248 71.9554 62.3559 72.1273 61.8602 72.1818L63.9349 74.9086ZM61.1048 68.9486L59.1595 68.9477L59.1587 71.1303L61.1039 71.1312C61.4703 71.1312 61.7249 71.0658 61.8703 70.9333C62.0156 70.8008 62.0887 70.5702 62.0896 70.2373V69.8542C62.0896 69.5213 62.0165 69.289 61.8686 69.1523C61.7215 69.0165 61.4669 68.9494 61.1048 68.9486Z" fill="#0C0D0D"/>
<path d="M69.5707 67.8837L70.9631 67.8845L68.3069 72.4728L68.3052 74.9111L67.0633 74.9103L67.065 72.4719L64.424 67.8803L65.8062 67.8812L67.7011 71.1345L69.5707 67.8837Z" fill="#0C0D0D"/>
<path d="M37.334 19.2829C37.334 13.6976 41.2942 9.15469 46.162 9.15469L63.5946 9.16475L61.0149 11.7389L63.75 14.4691L71 7.23453L63.75 0L61.0149 2.72846L63.5223 5.23221H46.162C39.1263 5.23221 33.4031 11.5352 33.4031 19.282V48.4465C33.4031 54.0318 29.4428 58.5747 24.575 58.5747H0.0235596V62.4964H24.575C31.6099 62.4964 37.3331 56.1934 37.3331 48.4465V19.2829H37.334Z" fill="#1854A5"/>
<path d="M15.4705 35.8247H30.1999V31.9081H15.4705C9.72467 31.9081 5.05016 26.8117 5.05016 20.5482C5.05016 14.2829 9.72467 9.18655 15.4705 9.18655H32.9283C33.93 7.29323 35.6223 5.86192 37.6449 5.27162H15.4697C7.38279 5.27162 0.803345 12.1238 0.803345 20.5482C0.803345 28.9725 7.38363 35.8247 15.4705 35.8247Z" fill="#090F17"/>
<path d="M55.3303 31.9357H40.6009V35.8524H55.3303C61.0762 35.8524 65.7507 40.9487 65.7507 47.2123C65.7507 53.4775 61.0762 58.5739 55.3303 58.5739H37.8725C36.8709 60.4672 35.1786 61.8985 33.156 62.4888H55.3312C63.4181 62.4888 69.9975 55.6366 69.9975 47.2123C69.9975 38.7879 63.4172 31.9357 55.3303 31.9357Z" fill="#090F17"/>
</g>
<defs>
<clipPath id="clip0_2168_1513">
<rect width="71" height="75" fill="white"/>
</clipPath>
</defs>
</svg>
