<svg width="36" height="36" viewBox="0 0 36 36" fill="none" xmlns="http://www.w3.org/2000/svg">
<path d="M28.5978 19.9337C19.2422 21.4722 17.5789 23.4265 16.3315 34.8195C16.2899 35.1938 15.7494 35.1938 15.7078 34.8195C14.4604 23.4265 12.7972 21.5138 3.44156 19.9337C3.06733 19.8921 3.06733 19.3516 3.44156 19.31C12.7972 17.7715 14.4604 15.8588 15.7078 4.46573C15.7494 4.0915 16.2899 4.0915 16.3315 4.46573C17.5789 15.8588 19.2422 17.7299 28.5978 19.31C28.9304 19.3516 28.9304 19.8505 28.5978 19.9337Z" fill="white"/>
<path d="M32.5895 6.79394C29.6789 7.37607 28.8473 8.33243 28.3483 11.742C28.3067 12.1163 27.7662 12.1163 27.7246 11.742C27.2256 8.33242 26.394 7.37607 23.4834 6.75236C23.1507 6.6692 23.1507 6.21182 23.4834 6.12866C26.3524 5.54653 27.2256 4.59018 27.7246 1.18057C27.7662 0.806346 28.3067 0.806346 28.3483 1.18057C28.8473 4.59018 29.6789 5.54653 32.5895 6.17024C32.9222 6.2534 32.9222 6.75236 32.5895 6.79394Z" fill="white"/>
</svg>
