<svg width="71" height="75" viewBox="0 0 71 75" fill="none" xmlns="http://www.w3.org/2000/svg">
<g clip-path="url(#clip0_2168_1548)">
<path d="M3.78801 74.9723L1.8772 74.9715C1.24278 74.9715 0.772224 74.8273 0.462999 74.538C0.153773 74.2487 0 73.8051 0 73.209L0.010083 73.0966L1.24195 72.9541V73.0211C1.24195 73.354 1.31421 73.5846 1.45958 73.7154C1.60495 73.8462 1.86123 73.9116 2.22592 73.9125L3.43845 73.9133C3.79473 73.9133 4.04598 73.8462 4.19219 73.7121C4.34008 73.5796 4.41403 73.3448 4.41403 73.0144V72.8434C4.41403 72.5675 4.35017 72.3747 4.22496 72.2673C4.09556 72.1583 3.83758 72.0778 3.44937 72.0309L1.73267 71.7827C1.09909 71.6955 0.660464 71.5295 0.418461 71.288C0.166375 71.0373 0.0411732 70.6558 0.0411732 70.1468V69.5305C0.0411732 68.9217 0.193259 68.4715 0.497443 68.1805C0.801627 67.8896 1.27219 67.7445 1.90997 67.7453L3.74852 67.7462C4.38209 67.7462 4.85181 67.8921 5.15684 68.1814C5.4627 68.4706 5.61563 68.9142 5.61479 69.5154V69.6261L4.37285 69.7711V69.7041C4.37285 69.3804 4.30058 69.1532 4.15437 69.0207C4.009 68.8882 3.7586 68.8228 3.40232 68.822L2.27717 68.8211C1.91165 68.8211 1.65536 68.8882 1.50579 69.0207C1.35706 69.1548 1.28228 69.3879 1.28228 69.72V69.8416C1.28228 70.1091 1.34614 70.296 1.47134 70.4034C1.60075 70.5124 1.86291 70.5962 2.25701 70.6549L3.97372 70.9031C4.60729 70.9903 5.04507 71.1563 5.28792 71.3978C5.53244 71.6435 5.65596 72.0267 5.65596 72.5499V73.2023C5.65596 73.8035 5.50219 74.2487 5.19633 74.5397C4.89046 74.8273 4.42158 74.9723 3.78801 74.9723Z" fill="#0C0D0D"/>
<path d="M11.1454 74.9757L9.23463 74.9748C8.60021 74.9748 8.12965 74.8306 7.82042 74.5413C7.5112 74.2521 7.35742 73.8085 7.35742 73.2123L7.3675 73.1L8.59937 72.9574V73.0245C8.59937 73.3574 8.67163 73.588 8.817 73.7188C8.96237 73.8496 9.21866 73.915 9.58334 73.9158L10.7959 73.9167C11.1522 73.9167 11.4034 73.8496 11.5496 73.7154C11.6975 73.5829 11.7714 73.3482 11.7714 73.0178V72.8467C11.7714 72.5709 11.7076 72.378 11.5824 72.2707C11.453 72.1617 11.195 72.0812 10.8068 72.0342L9.09009 71.786C8.45652 71.6988 8.0179 71.5328 7.77589 71.2913C7.52381 71.0406 7.3986 70.6591 7.3986 70.1501V69.5339C7.3986 68.9251 7.55069 68.4748 7.85488 68.1839C8.15906 67.8929 8.62962 67.7479 9.2674 67.7487L11.1059 67.7495C11.7395 67.7495 12.2092 67.8954 12.5143 68.1847C12.8201 68.474 12.9731 68.9176 12.9722 69.5188V69.6294L11.7303 69.7745V69.7074C11.7303 69.3838 11.658 69.1565 11.5118 69.024C11.3664 68.8916 11.116 68.8262 10.7597 68.8253L9.63461 68.8245C9.26908 68.8245 9.01279 68.8916 8.86322 69.024C8.71449 69.1582 8.6397 69.3913 8.6397 69.7233V69.8449C8.6397 70.1124 8.70356 70.2994 8.82876 70.4067C8.95817 70.5157 9.22034 70.5996 9.61443 70.6583L11.3311 70.9065C11.9647 70.9937 12.4025 71.1597 12.6453 71.4012C12.8899 71.6469 13.0134 72.03 13.0134 72.5533V73.2056C13.0134 73.8068 12.8596 74.2521 12.5538 74.543C12.2479 74.8315 11.779 74.9765 11.1454 74.9757Z" fill="#0C0D0D"/>
<path d="M23.6641 74.8868L22.3835 74.886L21.7591 73.0228L18.9265 73.0211L18.2997 74.8834L17.0283 74.8826L19.4475 67.8552L21.2466 67.856L23.6641 74.8868ZM20.3508 68.8396L19.2963 71.9605L21.4012 71.9613L20.3508 68.8396Z" fill="#0C0D0D"/>
<path d="M25.1583 67.8585L28.7051 67.8602C29.3412 67.8602 29.8126 68.0061 30.1159 68.2971C30.4201 68.588 30.5714 69.0391 30.5714 69.6479L30.5697 73.1134C30.5697 73.7146 30.4159 74.1598 30.1101 74.4525C29.805 74.7451 29.3353 74.8902 28.7009 74.8893L25.1541 74.8876L25.1583 67.8585ZM29.3269 72.9256L29.3286 69.8365C29.3286 69.5037 29.2555 69.2714 29.1076 69.1347C28.9614 68.9981 28.7059 68.931 28.3438 68.931L26.3985 68.9301L26.396 73.8295L28.3413 73.8303C28.7034 73.8303 28.9589 73.7615 29.1051 73.6274C29.253 73.4907 29.3269 73.2559 29.3269 72.9256Z" fill="#0C0D0D"/>
<path d="M34.9189 73.7406L36.8869 67.8652L38.1725 67.8661L35.7718 74.8935L34.0643 74.8927L31.6821 67.8627L32.9535 67.8636L34.9189 73.7406Z" fill="#0C0D0D"/>
<path d="M40.8943 74.896L39.6523 74.8952L39.6565 67.8661L40.8985 67.8669L40.8943 74.896Z" fill="#0C0D0D"/>
<path d="M46.6081 74.9958L44.6973 74.995C44.0628 74.995 43.5923 74.8507 43.2831 74.5615C42.9738 74.2722 42.8201 73.8286 42.8201 73.2333L42.8302 73.1209L44.062 72.9784V73.0455C44.062 73.3784 44.1343 73.6089 44.2796 73.7397C44.425 73.8706 44.6813 73.936 45.046 73.9368L46.2585 73.9376C46.6148 73.9376 46.866 73.8705 47.0123 73.7364C47.1601 73.6039 47.2341 73.3691 47.2341 73.0388V72.8677C47.2341 72.5918 47.1702 72.399 47.045 72.2917C46.9156 72.1827 46.6577 72.1022 46.2694 72.0552L44.5527 71.807C43.9192 71.7198 43.4805 71.5538 43.2385 71.3123C42.9864 71.0616 42.8612 70.6801 42.8612 70.1711V69.5548C42.8612 68.9461 43.0133 68.4958 43.3175 68.2048C43.6217 67.9139 44.0923 67.7688 44.73 67.7697L46.5686 67.7705C47.2022 67.7705 47.6719 67.9164 47.9769 68.2057C48.2828 68.495 48.4357 68.9385 48.4349 69.5397V69.6504L47.1929 69.7955V69.7284C47.1929 69.4047 47.1207 69.1775 46.9745 69.045C46.8291 68.9125 46.5787 68.8471 46.2224 68.8463L45.0972 68.8454C44.7317 68.8454 44.4754 68.9125 44.3259 69.045C44.1771 69.1792 44.1023 69.4123 44.1023 69.7443V69.8659C44.1023 70.1334 44.1662 70.3204 44.2914 70.4277C44.4208 70.5367 44.683 70.6205 45.0771 70.6792L46.7938 70.9274C47.4274 71.0146 47.8652 71.1807 48.108 71.4221C48.3525 71.6678 48.476 72.051 48.476 72.5742V73.2266C48.476 73.8278 48.3223 74.273 48.0164 74.564C47.7114 74.8507 47.2425 74.9958 46.6081 74.9958Z" fill="#0C0D0D"/>
<path d="M52.17 67.7722L54.0573 67.773C54.6934 67.773 55.1648 67.9189 55.4681 68.2099C55.7723 68.5008 55.9236 68.9519 55.9236 69.5607L55.9219 73.2291C55.9219 73.8303 55.7681 74.2755 55.4623 74.5665C55.1572 74.8549 54.6875 75 54.0531 75L52.1658 74.9992C51.5297 74.9992 51.0566 74.8533 50.7499 74.564C50.4424 74.273 50.2894 73.8278 50.2903 73.2266L50.292 69.5573C50.292 68.9486 50.4457 68.4983 50.7533 68.2074C51.0608 67.9164 51.5339 67.7713 52.17 67.7722ZM54.6808 73.0413L54.6825 69.7485C54.6825 69.4156 54.6094 69.1834 54.4623 69.0484C54.3153 68.9159 54.064 68.848 53.7077 68.848L52.5154 68.8471C52.1532 68.8471 51.8986 68.9142 51.7532 69.0467C51.6087 69.1808 51.5356 69.4139 51.5356 69.746L51.5339 73.0388C51.5339 73.3691 51.6062 73.6039 51.7515 73.7364C51.8969 73.8705 52.1515 73.9385 52.5137 73.9385L53.7061 73.9393C54.0623 73.9393 54.3136 73.8722 54.4606 73.7381C54.606 73.6064 54.6799 73.3716 54.6808 73.0413Z" fill="#0C0D0D"/>
<path d="M63.9349 74.9086L62.4744 74.9078L60.3611 72.2011L59.1587 72.2003L59.157 74.9061L57.915 74.9052L57.9192 67.8761L61.4661 67.8778C62.1022 67.8778 62.5736 68.0237 62.8769 68.3147C63.1803 68.6056 63.3324 69.0567 63.3324 69.6655L63.3315 70.4252C63.3315 70.961 63.2088 71.3752 62.9668 71.6645C62.7248 71.9554 62.3559 72.1273 61.8602 72.1818L63.9349 74.9086ZM61.1048 68.9486L59.1595 68.9477L59.1587 71.1303L61.1039 71.1312C61.4703 71.1312 61.7249 71.0658 61.8703 70.9333C62.0156 70.8008 62.0887 70.5702 62.0896 70.2373V69.8542C62.0896 69.5213 62.0165 69.289 61.8686 69.1523C61.7215 69.0165 61.4669 68.9494 61.1048 68.9486Z" fill="#0C0D0D"/>
<path d="M69.5706 67.8837L70.9629 67.8845L68.3068 72.4728L68.3051 74.9111L67.0632 74.9103L67.0648 72.4719L64.4238 67.8803L65.8061 67.8812L67.7009 71.1345L69.5706 67.8837Z" fill="#0C0D0D"/>
<path d="M37.3338 19.2829C37.3338 13.6976 41.2941 9.15469 46.1619 9.15469L63.5945 9.16475L61.0148 11.7389L63.7499 14.4691L70.9999 7.23453L63.7499 0L61.0148 2.72846L63.5222 5.23221H46.1619C39.1262 5.23221 33.403 11.5352 33.403 19.282V48.4465C33.403 54.0318 29.4427 58.5747 24.5749 58.5747H0.0234375V62.4964H24.5749C31.6098 62.4964 37.333 56.1934 37.333 48.4465V19.2829H37.3338Z" fill="#1854A5"/>
<path d="M15.4704 35.8247H30.1998V31.9081H15.4704C9.72455 31.9081 5.05003 26.8117 5.05003 20.5482C5.05003 14.2829 9.72455 9.18655 15.4704 9.18655H32.9282C33.9298 7.29323 35.6222 5.86192 37.6447 5.27162H15.4696C7.38267 5.27162 0.803223 12.1238 0.803223 20.5482C0.803223 28.9725 7.38351 35.8247 15.4704 35.8247Z" fill="#090F17"/>
<path d="M55.3303 31.9357H40.6009V35.8524H55.3303C61.0762 35.8524 65.7507 40.9487 65.7507 47.2123C65.7507 53.4775 61.0762 58.5739 55.3303 58.5739H37.8725C36.8709 60.4672 35.1786 61.8985 33.156 62.4888H55.3312C63.4181 62.4888 69.9975 55.6366 69.9975 47.2123C69.9975 38.7879 63.4172 31.9357 55.3303 31.9357Z" fill="#090F17"/>
</g>
<defs>
<clipPath id="clip0_2168_1548">
<rect width="71" height="75" fill="white"/>
</clipPath>
</defs>
</svg>
