<svg width="61" height="60" viewBox="0 0 61 60" fill="none" xmlns="http://www.w3.org/2000/svg">
<g clip-path="url(#clip0_2154_2493)">
<path fill-rule="evenodd" clip-rule="evenodd" d="M47.834 19.8903C50.0048 16.849 54.1079 13.575 59.6939 10.8494C61.1456 10.1411 60.4907 7.94577 58.8882 8.14847C47.1515 9.63307 39.5442 14.7733 35.39 22.4175C33.845 25.2606 32.8743 28.2867 32.3573 31.3759C32.0165 33.4127 31.9265 34.9412 31.9265 36.7067C31.9265 44.596 38.322 50.9915 46.2112 50.9915C54.1005 50.9915 60.496 44.596 60.496 36.7067C60.496 28.8174 53.9984 22.4175 46.5317 22.4175C46.9256 21.3359 47.0202 21.0303 47.834 19.8903ZM16.4075 19.8903C18.5783 16.849 22.6814 13.575 28.2674 10.8494C29.7191 10.1411 29.0643 7.94577 27.4618 8.14847C15.725 9.63307 8.11776 14.7733 3.96358 22.4175C2.41852 25.2606 1.44781 28.2867 0.930855 31.3759C0.590012 33.4127 0.499996 34.9412 0.499996 36.7067C0.499996 44.596 6.8955 50.9915 14.7848 50.9915C22.674 50.9915 29.0695 44.596 29.0695 36.7067C29.0695 28.8174 22.572 22.4175 15.1053 22.4175C15.4992 21.3359 15.5938 21.0303 16.4075 19.8903Z" fill="#204199"/>
</g>
<defs>
<clipPath id="clip0_2154_2493">
<rect width="60" height="60" fill="white" transform="translate(0.5)"/>
</clipPath>
</defs>
</svg>
