<svg width="36" height="36" viewBox="0 0 36 36" fill="none" xmlns="http://www.w3.org/2000/svg">
<path d="M28.5978 19.9334C19.2422 21.4719 17.5789 23.4262 16.3315 34.8193C16.2899 35.1935 15.7494 35.1935 15.7078 34.8193C14.4604 23.4262 12.7972 21.5135 3.44156 19.9334C3.06733 19.8919 3.06733 19.3513 3.44156 19.3097C12.7972 17.7713 14.4604 15.8586 15.7078 4.46548C15.7494 4.09126 16.2899 4.09126 16.3315 4.46548C17.5789 15.8586 19.2422 17.7297 28.5978 19.3097C28.9304 19.3513 28.9304 19.8503 28.5978 19.9334Z" fill="white"/>
<path d="M32.5895 6.79407C29.6789 7.37619 28.8473 8.33255 28.3483 11.7422C28.3067 12.1164 27.7662 12.1164 27.7246 11.7422C27.2256 8.33255 26.394 7.37619 23.4834 6.75249C23.1507 6.66933 23.1507 6.21194 23.4834 6.12878C26.3524 5.54665 27.2256 4.5903 27.7246 1.18069C27.7662 0.806468 28.3067 0.806468 28.3483 1.18069C28.8473 4.5903 29.6789 5.54665 32.5895 6.17036C32.9222 6.25352 32.9222 6.75249 32.5895 6.79407Z" fill="white"/>
</svg>
