<svg width="36" height="36" viewBox="0 0 36 36" fill="none" xmlns="http://www.w3.org/2000/svg">
<path d="M28.598 19.9334C19.2424 21.4719 17.5792 23.4262 16.3318 34.8193C16.2902 35.1935 15.7496 35.1935 15.7081 34.8193C14.4606 23.4262 12.7974 21.5135 3.4418 19.9334C3.06758 19.8919 3.06758 19.3513 3.4418 19.3097C12.7974 17.7713 14.4606 15.8586 15.7081 4.46548C15.7496 4.09126 16.2902 4.09126 16.3318 4.46548C17.5792 15.8586 19.2424 17.7297 28.598 19.3097C28.9307 19.3513 28.9307 19.8503 28.598 19.9334Z" fill="white"/>
<path d="M32.5895 6.79407C29.6789 7.37619 28.8473 8.33255 28.3483 11.7422C28.3067 12.1164 27.7662 12.1164 27.7246 11.7422C27.2256 8.33255 26.394 7.37619 23.4834 6.75249C23.1507 6.66933 23.1507 6.21194 23.4834 6.12878C26.3524 5.54665 27.2256 4.5903 27.7246 1.18069C27.7662 0.806468 28.3067 0.806468 28.3483 1.18069C28.8473 4.5903 29.6789 5.54665 32.5895 6.17036C32.9222 6.25352 32.9222 6.75249 32.5895 6.79407Z" fill="white"/>
</svg>
