<svg preserveAspectRatio="none" width="100%" height="100%" overflow="visible" style="display: block;" viewBox="0 0 123 32" fill="none" xmlns="http://www.w3.org/2000/svg">
<g id="Inkam Logo" clip-path="url(#clip0_0_4)">
<path id="Vector" d="M8.1795 10.1759V30.3154C8.1795 30.8701 7.7285 31.3221 7.175 31.3221H3.731C3.1775 31.3221 2.7265 30.8701 2.7265 30.3154V10.1691C2.7265 9.60753 3.1775 9.15557 3.73783 9.16242H7.175C7.7285 9.16927 8.1795 9.62122 8.1795 10.1759Z" fill="var(--fill-0, #FF8800)"/>
<path id="Vector_2" d="M34.7885 21.5365V30.3223C34.7885 30.8769 34.3443 31.3289 33.784 31.3289H30.34C29.7865 31.3289 29.3355 30.8769 29.3355 30.3223V27.6037L34.7953 21.5433L34.7885 21.5365Z" fill="var(--fill-0, #005CAF)"/>
<path id="Vector_3" d="M82.8678 9.2309H79.4648C78.9113 9.2309 78.4603 9.68286 78.4603 10.2375V10.7717C78.4603 11.2168 77.9068 11.4565 77.5993 11.1346C76.1507 9.60754 73.841 8.69677 71.4357 8.69677C64.9918 8.65568 59.942 12.6411 59.942 20.2628C59.942 27.8844 64.7732 32.0479 71.299 32.0069C73.3148 31.9658 76.0003 31.1098 77.5925 29.3704C77.8932 29.0349 78.4535 29.2677 78.4535 29.7197V30.3291C78.4535 30.8838 78.9045 31.3358 79.458 31.3358H82.861C83.4145 31.3358 83.8655 30.8838 83.8655 30.3291V10.2375C83.8655 9.68286 83.4145 9.2309 82.861 9.2309H82.8678ZM72.5973 26.9531C68.6682 27.275 65.4018 24.7207 65.4018 20.2628C65.4018 15.8048 68.6613 13.2985 72.5837 13.6067C80.5172 14.2435 80.5308 26.2957 72.5973 26.9531Z" fill="var(--fill-0, #005CAF)"/>
<path id="Vector_4" d="M113.652 8.9159C111.014 8.9159 108.65 9.67601 106.75 12.244C106.532 12.5384 106.081 12.5042 105.903 12.1755C104.55 9.7171 102.145 8.82003 99.7393 8.82003C98.0583 8.82003 96.0972 9.33362 94.7783 10.6895C94.4708 11.0113 93.9242 10.7785 93.9242 10.3334V10.1896C93.9242 9.63492 93.4732 9.18296 92.9197 9.18296H89.4688C88.9153 9.18296 88.4643 9.63492 88.4643 10.1896V30.3154C88.4643 30.8701 88.9153 31.3221 89.4688 31.3221H92.9128C93.4663 31.3221 93.9173 30.8701 93.9173 30.3154V19.489C93.9173 16.5786 95.6598 13.9354 98.6118 13.9354C101.564 13.9354 103.129 16.5786 103.129 19.489V30.3154C103.129 30.8701 103.58 31.3221 104.133 31.3221H107.577C108.131 31.3221 108.582 30.8701 108.582 30.3154V19.489C108.582 16.5786 110.413 14.0244 113.365 14.0244C116.317 14.0244 117.526 16.4896 117.526 19.4V30.3154C117.526 30.8701 117.977 31.3221 118.531 31.3221H121.975C122.528 31.3221 122.979 30.8701 122.979 30.3154V19.4C122.979 12.7644 119.891 8.9159 113.631 8.9159H113.652Z" fill="var(--fill-0, #005CAF)"/>
<path id="Vector_5" d="M9.88793 0H1.00459C0.136761 0 -0.321072 1.03403 0.259761 1.68457L4.70143 6.62187C5.09776 7.06698 5.79476 7.06698 6.19109 6.62187L10.6328 1.68457C11.2204 1.03403 10.7558 0 9.88793 0Z" fill="var(--fill-0, #FF8800)"/>
<path id="Vector_6" d="M34.7885 19.7218V21.5433L29.3287 27.6037V19.7629C29.3287 16.4691 27.5657 13.9422 24.2037 13.8532C20.9715 13.7642 18.368 16.517 18.368 19.756V30.3223C18.368 30.8769 17.9238 31.3289 17.3635 31.3289H13.9673C13.407 31.3289 12.9628 30.8769 12.9628 30.3223V10.1964C12.9628 9.63492 13.407 9.18981 13.9673 9.18981H17.3703C17.9307 9.18981 18.3748 9.63492 18.3748 10.1964V10.9086C18.3748 11.34 18.8873 11.566 19.2085 11.2784C21.074 9.66916 23.0283 8.87481 25.4405 8.87481C30.627 8.87481 34.7817 12.7712 34.7817 19.7218H34.7885Z" fill="var(--fill-0, #FF8800)"/>
<path id="Vector_7" d="M59.245 30.0621L50.0678 19.9615C49.9038 19.7697 49.8902 19.4821 50.0678 19.2904L57.9125 10.4841C58.343 10.0047 57.9945 9.22405 57.3453 9.22405H52.6918C52.398 9.22405 52.111 9.35416 51.9265 9.58699L45.6945 17.0374C45.387 17.4004 44.7993 17.1812 44.7993 16.7156V10.395L39.3463 16.4554V30.3154C39.3463 30.8701 39.7905 31.3221 40.3508 31.3221H43.788C44.3483 31.3221 44.7925 30.8701 44.7925 30.3154V22.6801C44.7925 22.2144 45.3733 21.9953 45.6808 22.3514L53.1292 30.9728C53.3273 31.1919 53.5938 31.3221 53.8877 31.3221H58.6847C59.3338 31.3221 59.6823 30.5414 59.245 30.0552V30.0621Z" fill="var(--fill-0, #005CAF)"/>
<path id="Vector_8" d="M44.7993 1.00663C44.7993 0.44511 44.3552 0 43.7948 0H40.3577C39.7973 0 39.3532 0.44511 39.3532 1.00663V16.4622L44.8062 10.4019V1.00663H44.7993Z" fill="var(--fill-0, #FF8800)"/>
</g>
<defs>
<clipPath id="clip0_0_4">
<rect width="123" height="32" fill="white"/>
</clipPath>
</defs>
</svg>
