<svg preserveAspectRatio="none" width="100%" height="100%" overflow="visible" style="display: block;" viewBox="0 0 130 28" fill="none" xmlns="http://www.w3.org/2000/svg">
<g id="Logo">
<path id="Vector" d="M11.8109 26.2053C11.6259 26.6743 11.3646 27.0202 11.0296 27.2429C10.6932 27.4656 10.3284 27.5769 9.93515 27.5769C8.98562 27.5769 8.3595 27.1197 8.05937 26.2053L3.99476 14.5974V25.5372C3.99476 26.17 3.81494 26.6691 3.4566 27.0319C3.09697 27.3961 2.60539 27.5769 1.98056 27.5769C1.4243 27.5769 0.955999 27.3961 0.573082 27.0319C0.191459 26.6691 0 26.17 0 25.5372V3.6222C0 2.9423 0.203101 2.43795 0.60801 2.10914C1.01292 1.78164 1.45923 1.61658 1.94563 1.61658C2.26904 1.61658 2.62868 1.72793 3.02194 1.95063C3.41521 2.17333 3.70498 2.53096 3.88997 3.02352L9.93515 20.0496L16.014 3.02483C16.199 2.55585 16.4654 2.20346 16.8134 1.96897C17.1601 1.73448 17.543 1.61658 17.9596 1.61658C18.4926 1.61658 18.9492 1.78164 19.3321 2.10914C19.7138 2.43795 19.9052 2.9423 19.9052 3.6222V25.5372C19.9052 26.17 19.7254 26.6691 19.3671 27.0319C19.0074 27.3961 18.5159 27.5769 17.891 27.5769C17.3115 27.5769 16.8367 27.3961 16.4667 27.0319C16.0955 26.6691 15.9105 26.17 15.9105 25.5372V14.562L11.8109 26.2053Z" fill="var(--fill-0, #008080)"/>
<path id="Vector_2" d="M33.9035 7.3161C35.2929 7.3161 36.6072 7.58597 37.8465 8.12569C39.0845 8.66541 40.1673 9.38591 41.0949 10.2885C42.0211 11.1911 42.7559 12.247 43.3005 13.4548C43.8438 14.6626 44.1168 15.9346 44.1168 17.2721C44.1168 17.952 43.9435 18.4682 43.5955 18.8192C43.2488 19.1716 42.7624 19.3472 42.1362 19.3472H28.033C28.1481 20.0035 28.3913 20.614 28.7626 21.1759C29.1326 21.7392 29.5905 22.2252 30.1352 22.6353C30.6785 23.0453 31.2748 23.3689 31.9243 23.6021C32.5724 23.8366 33.2321 23.9531 33.9048 23.9531C34.7612 23.9531 35.549 23.8012 36.267 23.496C36.985 23.192 37.6214 22.7571 38.1777 22.1938C38.4093 21.9829 38.6641 21.8126 38.9422 21.6842C39.2204 21.5558 39.4856 21.4903 39.7417 21.4903C40.2747 21.4903 40.7197 21.6895 41.0793 22.089C41.4377 22.4886 41.6175 22.9562 41.6175 23.496C41.6175 23.7776 41.5826 24.0475 41.5127 24.3055C41.4429 24.5636 41.3044 24.7981 41.0962 25.009C40.1932 26.0177 39.1272 26.7683 37.9009 27.2609C36.6732 27.7535 35.342 27.9997 33.9061 27.9997C32.4935 27.9997 31.1675 27.7299 29.9295 27.1902C28.6902 26.6504 27.6074 25.9182 26.6811 24.992C25.7549 24.0658 25.0253 22.9759 24.4923 21.7209C23.9593 20.4672 23.6941 19.1245 23.6941 17.6926C23.6941 16.2621 23.9593 14.9207 24.4923 13.6657C25.0253 12.412 25.7536 11.3155 26.6811 10.3763C27.6074 9.43831 28.6902 8.69423 29.9295 8.14271C31.1649 7.5912 32.4909 7.3161 33.9035 7.3161ZM33.9035 11.3614C33.2321 11.3614 32.5711 11.4793 31.923 11.7138C31.2748 11.9483 30.6901 12.2771 30.1688 12.6989C29.6474 13.1207 29.2011 13.6133 28.8312 14.1766C28.4599 14.7399 28.2063 15.349 28.0666 16.0054H39.7378C39.6214 15.349 39.3782 14.7386 39.0082 14.1766C38.6369 13.6133 38.1855 13.122 37.6538 12.6989C37.1208 12.2771 36.5309 11.9483 35.8815 11.7138C35.2347 11.478 34.5749 11.3614 33.9035 11.3614Z" fill="var(--fill-0, #008080)"/>
<path id="Vector_3" d="M63.2897 2.0043C63.2897 1.39515 63.4682 0.907828 63.8278 0.544958C64.1862 0.182087 64.679 0 65.3039 0C65.9054 0 66.3918 0.182087 66.7631 0.544958C67.1331 0.909138 67.3194 1.39515 67.3194 2.0043V25.7835C67.3194 26.3232 67.1628 26.7568 66.8511 27.0856C66.538 27.4144 66.1396 27.5782 65.6531 27.5782C65.0749 27.5782 64.582 27.4026 64.1771 27.0502C63.7722 26.6979 63.5225 26.1123 63.4307 25.2909C63.1293 25.642 62.7593 25.9826 62.3194 26.3114C61.8796 26.6402 61.3932 26.9271 60.8602 27.1734C60.3272 27.4197 59.7658 27.6188 59.1759 27.7721C58.586 27.924 57.9883 28 57.3868 28C56.0673 28 54.7866 27.7301 53.5486 27.1904C52.3093 26.6507 51.2213 25.9184 50.2834 24.9922C49.3455 24.0661 48.5926 22.9761 48.026 21.7212C47.4581 20.4675 47.1748 19.1247 47.1748 17.6929C47.1748 16.2624 47.4581 14.9209 48.026 13.666C48.5926 12.4123 49.3455 11.3158 50.2834 10.3765C51.2213 9.43857 52.3093 8.69449 53.5486 8.14297C54.7879 7.59277 56.0673 7.31636 57.3868 7.31636C58.7063 7.31636 59.8641 7.54562 60.8602 8.00281C61.855 8.46 62.6661 9.0757 63.2923 9.84991V2.0043H63.2897ZM57.3842 11.3617C56.5032 11.3617 55.6882 11.5267 54.9353 11.8542C54.1824 12.183 53.5292 12.6337 52.9729 13.2088C52.4166 13.7839 51.9768 14.4572 51.6534 15.2314C51.3287 16.0056 51.167 16.8257 51.167 17.6942C51.167 18.5627 51.3287 19.3776 51.6534 20.1387C51.9781 20.9011 52.4179 21.5626 52.9729 22.126C53.5292 22.6893 54.1824 23.1346 54.9353 23.4621C55.6882 23.791 56.5045 23.9547 57.3842 23.9547C58.2173 23.9547 59 23.791 59.7296 23.4621C60.4592 23.1346 61.084 22.6879 61.6053 22.126C62.1267 21.5626 62.5368 20.9011 62.8382 20.1387C63.1383 19.3776 63.2897 18.5614 63.2897 17.6942C63.2897 16.827 63.1383 16.0056 62.8382 15.2314C62.5368 14.4572 62.1267 13.7839 61.6053 13.2088C61.084 12.635 60.4592 12.183 59.7296 11.8542C59 11.5254 58.2186 11.3617 57.3842 11.3617Z" fill="var(--fill-0, #008080)"/>
<path id="Vector_4" d="M75.6908 4.81831C75.6908 5.42877 75.511 5.91478 75.1526 6.27765C74.793 6.64183 74.3014 6.82261 73.6766 6.82261C73.1203 6.82261 72.652 6.64183 72.2691 6.27765C71.8875 5.91478 71.696 5.42746 71.696 4.81831V2.00442C71.696 1.39527 71.8875 0.907946 72.2691 0.545075C72.652 0.182205 73.1203 0.000117838 73.6766 0.000117838C74.3014 0.000117838 74.793 0.182205 75.1526 0.545075C75.511 0.909256 75.6908 1.39527 75.6908 2.00442V4.81831ZM75.6908 25.5373C75.6908 26.17 75.511 26.6692 75.1526 27.032C74.793 27.3962 74.3014 27.577 73.6766 27.577C73.1203 27.577 72.652 27.3962 72.2691 27.032C71.8875 26.6692 71.696 26.17 71.696 25.5373V10.4815C71.696 9.89588 71.8875 9.41511 72.2691 9.03914C72.652 8.66448 73.1203 8.47584 73.6766 8.47584C74.3014 8.47584 74.793 8.66448 75.1526 9.03914C75.511 9.41511 75.6908 9.89588 75.6908 10.4815V25.5373Z" fill="var(--fill-0, #008080)"/>
<path id="Vector_5" d="M104.036 11.9588C104.614 11.9588 105.084 12.1173 105.442 12.4331C105.8 12.7501 105.98 13.2479 105.98 13.9278C105.98 15.8273 105.632 17.5918 104.937 19.2215C104.243 20.8511 103.293 22.2764 102.089 23.496C100.884 24.7156 99.4782 25.6719 97.8689 26.3623C96.2596 27.054 94.5391 27.3998 92.7099 27.3998C90.8807 27.3998 89.1601 27.0828 87.5509 26.4501C85.9416 25.8174 84.5406 24.937 83.3478 23.8117C82.1551 22.6865 81.212 21.3385 80.5173 19.7665C79.8227 18.1958 79.4747 16.4718 79.4747 14.5959C79.4747 12.7435 79.8278 11.0025 80.5342 9.37158C81.2405 7.74193 82.1952 6.31796 83.3996 5.09835C84.6039 3.87874 86.0166 2.9172 87.6375 2.21373C89.2585 1.51026 90.9725 1.15787 92.7784 1.15787C94.6309 1.15787 96.4084 1.50895 98.1108 2.21373C99.8133 2.9172 101.254 3.9141 102.435 5.20315C102.644 5.43764 102.8 5.66034 102.904 5.87125C103.009 6.08216 103.06 6.34023 103.06 6.64546C103.06 7.25592 102.887 7.74194 102.539 8.10481C102.192 8.46899 101.716 8.64977 101.115 8.64977C100.837 8.64977 100.553 8.57903 100.263 8.43886C99.9737 8.29869 99.702 8.08647 99.4472 7.80613C98.7059 7.00965 97.7499 6.37561 96.5817 5.90663C95.4123 5.43765 94.1445 5.20315 92.7784 5.20315C91.5042 5.20315 90.2998 5.44943 89.1653 5.94199C88.0308 6.43455 87.0399 7.1092 86.1951 7.96464C85.3491 8.82138 84.6841 9.81698 84.1977 10.9541C83.7113 12.0911 83.4681 13.3055 83.4681 14.5946C83.4681 15.8849 83.7049 17.0626 84.1796 18.1303C84.6531 19.1979 85.309 20.1175 86.1421 20.8917C86.9752 21.666 87.9545 22.2699 89.0773 22.7035C90.2002 23.1384 91.4098 23.3546 92.7073 23.3546C93.8651 23.3546 94.9595 23.1672 95.9893 22.7912C97.019 22.4166 97.9401 21.8887 98.7512 21.2088C99.5623 20.5289 100.245 19.7258 100.8 18.7997C101.357 17.8735 101.727 16.8596 101.912 15.7565H92.7759C92.2196 15.7565 91.7513 15.598 91.3697 15.2823C90.9868 14.9653 90.7966 14.4911 90.7966 13.857C90.7966 13.2715 90.988 12.8077 91.3697 12.4684C91.7513 12.1291 92.2209 11.9588 92.7759 11.9588H104.036Z" fill="var(--fill-0, #F99301)"/>
<path id="Vector_6" d="M119.285 7.3161C120.698 7.3161 122.024 7.59251 123.263 8.14271C124.501 8.69423 125.584 9.43831 126.512 10.3763C127.438 11.3142 128.168 12.4107 128.701 13.6657C129.234 14.9207 129.5 16.2634 129.5 17.6926C129.5 19.1232 129.234 20.4659 128.701 21.7209C128.168 22.9759 127.438 24.0658 126.512 24.992C125.585 25.9182 124.503 26.6518 123.263 27.1902C122.024 27.7299 120.698 27.9997 119.285 27.9997C117.873 27.9997 116.547 27.7299 115.307 27.1902C114.068 26.6504 112.985 25.9182 112.059 24.992C111.133 24.0658 110.403 22.9759 109.87 21.7209C109.337 20.4672 109.071 19.1245 109.071 17.6926C109.071 16.2621 109.336 14.9207 109.87 13.6657C110.403 12.412 111.132 11.3155 112.059 10.3763C112.985 9.43831 114.068 8.69423 115.307 8.14271C116.547 7.5912 117.873 7.3161 119.285 7.3161ZM119.285 11.3614C118.404 11.3614 117.588 11.5265 116.837 11.854C116.084 12.1828 115.43 12.6334 114.874 13.2085C114.318 13.7836 113.878 14.4569 113.553 15.2311C113.229 16.0054 113.067 16.8254 113.067 17.694C113.067 18.5625 113.229 19.3773 113.553 20.1384C113.878 20.9008 114.318 21.5624 114.874 22.1257C115.43 22.689 116.084 23.1344 116.837 23.4619C117.588 23.7907 118.406 23.9545 119.285 23.9545C120.142 23.9545 120.946 23.7907 121.699 23.4619C122.452 23.1344 123.112 22.6877 123.68 22.1257C124.248 21.5624 124.693 20.9008 125.018 20.1384C125.342 19.3773 125.504 18.5612 125.504 17.694C125.504 16.8267 125.342 16.0054 125.018 15.2311C124.693 14.4569 124.248 13.7836 123.68 13.2085C123.112 12.6347 122.452 12.1828 121.699 11.854C120.946 11.5251 120.142 11.3614 119.285 11.3614Z" fill="var(--fill-0, #F99301)"/>
</g>
</svg>
