<svg preserveAspectRatio="none" width="100%" height="100%" overflow="visible" style="display: block;" viewBox="0 0 127 34" fill="none" xmlns="http://www.w3.org/2000/svg">
<g id="Group">
<path id="Vector" fill-rule="evenodd" clip-rule="evenodd" d="M66.941 33.0219H62.7182V14.8881H66.905V22.4299H74.1959V14.8972H78.3943V32.9968H74.2473V25.4001H66.941C66.9413 27.9123 66.9413 30.4367 66.9413 33.0219H66.941ZM89.5356 14.8744C89.6787 14.8659 89.8039 14.8513 89.9285 14.8513C92.0767 14.8501 94.2248 14.8452 96.373 14.8536C97.3998 14.8577 98.4038 15.0268 99.3717 15.3754C101.859 16.2717 103.227 18.269 103.136 20.9159C103.115 21.5288 103.045 22.1542 102.89 22.7451C102.287 25.0379 100.652 26.2508 98.4511 26.7364C97.4863 26.9494 96.4729 26.952 95.4791 27.0167C94.9119 27.0534 94.3401 27.0233 93.7092 27.0233V33.0946H89.5355C89.5359 27.0228 89.5359 20.958 89.5359 14.8744H89.5356ZM60.3876 16.6505C59.9987 17.3738 59.6645 18.0609 59.2694 18.7109C58.916 19.2923 58.4492 19.356 57.7725 19.0521C57.0404 18.7233 56.3141 18.3425 55.5444 18.1509C55.0142 18.019 54.3976 18.0946 53.8491 18.2137C53.1562 18.3641 52.718 18.8451 52.6042 19.587C52.4889 20.341 52.7747 20.9011 53.4358 21.2226C54.0631 21.5274 54.7268 21.7587 55.3787 22.012C56.2679 22.3578 57.1903 22.6328 58.0462 23.0469C59.9176 23.9524 60.7815 25.6897 60.6105 27.7716C60.3371 31.0996 57.8457 33.1725 54.5976 33.2899C52.3526 33.3714 50.3166 32.7447 48.4964 31.4239C48.3098 31.2885 48.144 31.1248 47.93 30.941C48.3759 30.2292 48.7814 29.533 49.2369 28.8713C49.5635 28.3975 50.1077 28.2963 50.6632 28.5729C51.0615 28.7717 51.432 29.0263 51.8189 29.2488C52.8686 29.8525 53.9751 30.1386 55.1839 29.8443C56.0003 29.6454 56.4791 29.1536 56.6039 28.3936C56.7442 27.5404 56.5852 26.7888 55.7564 26.3785C55.1329 26.0698 54.4607 25.8582 53.8068 25.613C52.8939 25.2706 51.9396 25.0145 51.0716 24.583C49.5581 23.8304 48.8257 22.5161 48.6644 20.8429C48.3263 17.3354 50.8856 15.0381 53.9935 14.7514C55.9456 14.5716 57.8091 14.9196 59.492 15.9925C59.7923 16.1837 60.0677 16.4136 60.388 16.6508L60.3876 16.6505ZM126.35 14.8864V18.1545H121.354V32.9975H117.115V18.2023H112.066V14.8864H126.35ZM86.0243 33.0151H81.8323V14.8813H86.0243V33.0151ZM109.786 33.0155H105.595V14.8813H109.786V33.0155ZM93.7362 18.0076C94.8055 18.061 95.8324 18.0371 96.8352 18.1813C98.099 18.3632 98.801 19.2036 98.901 20.4913C98.9336 20.9118 98.9221 21.3506 98.8397 21.7628C98.5915 23.0098 97.7519 23.6974 96.3286 23.7885C95.4822 23.8428 94.6294 23.7984 93.7364 23.7984V18.0076H93.7362Z" fill="var(--fill-0, white)"/>
<g id="Group_2">
<path id="Vector_2" fill-rule="evenodd" clip-rule="evenodd" d="M0.00833103 20.5112C2.68555 23.4572 6.12176 24.8709 9.77131 25.8463C13.8132 26.927 17.9351 27.2274 22.106 26.9302C28.9917 26.4397 35.3321 24.3537 41.0634 20.4654C41.1308 20.4197 41.204 20.3825 41.3407 20.3027C41.3573 20.5064 41.3841 20.6607 41.3803 20.8141C41.3011 23.8758 40.5026 26.6977 38.6046 29.1514C37.4799 30.6054 36.0846 31.7437 34.5066 32.6627C34.2958 32.7853 34.0317 32.8593 33.7873 32.8747C31.5576 33.0162 29.3284 33.1978 27.0962 33.2559C23.416 33.351 19.7333 33.4089 16.0521 33.3955C12.8179 33.383 9.58671 33.2034 6.37522 32.7839C6.10106 32.7483 5.79943 32.6294 5.58698 32.4557C2.62653 30.0312 0.906699 26.8844 0.253875 23.1315C0.148222 22.5232 0.0810232 21.9075 0.0126747 21.2934C-0.0131317 21.0629 0.00845879 20.8264 0.00845879 20.5109L0.00833103 20.5112Z" fill="var(--fill-0, #B5B5B5)"/>
<path id="Vector_3" fill-rule="evenodd" clip-rule="evenodd" d="M34.1877 22.6984C29.8266 24.5747 22.9898 25.9973 20.0977 25.6697C20.1797 24.5296 20.2671 23.3883 20.3422 22.2463C20.4539 20.545 20.6241 18.8442 20.6494 17.1412C20.7002 13.7313 20.7345 10.3186 20.65 6.91004C20.5958 4.72149 20.3656 2.53115 19.6798 0.423544C19.6556 0.349261 19.6645 0.264347 19.643 0C20.0101 0.281765 20.3086 0.438785 20.5096 0.67803C21.1663 1.45954 21.8306 2.2408 22.4152 3.07611C25.2624 7.14416 27.7534 11.4356 30.25 15.7226C31.4068 17.7091 32.5273 19.7169 33.6615 21.7163C33.8386 22.028 34.0006 22.348 34.1879 22.6986L34.1877 22.6984ZM23.5338 7.42567C23.4919 7.43975 23.4499 7.45423 23.4078 7.46831C23.4078 7.60241 23.3795 7.74368 23.4126 7.86919C23.5585 8.4203 23.706 8.97192 23.8818 9.51419C24.633 11.8307 25.4274 14.1339 26.1415 16.4619C26.6428 18.0961 27.056 19.7585 27.4758 21.4168C27.6287 22.0216 27.6868 22.6502 27.7972 23.3218C29.2268 23.2768 30.5729 22.9598 31.8981 22.5273C32.2282 22.4194 32.2351 22.1798 32.1271 21.913C31.9916 21.5794 31.8639 21.2393 31.6932 20.9234C30.7459 19.169 29.8378 17.3905 28.8193 15.6784C27.347 13.2036 25.7966 10.7755 24.2661 8.33551C24.0607 8.00764 23.7796 7.72767 23.5337 7.42554L23.5338 7.42567Z" fill="var(--fill-0, #E88826)"/>
<path id="Vector_4" fill-rule="evenodd" clip-rule="evenodd" d="M6.2161 22.8491C7.98218 19.8746 9.66546 16.9364 11.4517 14.0627C12.9806 11.6034 14.6057 9.20286 16.2361 6.80888C16.7114 6.11062 17.3167 5.48971 17.9238 4.89672C18.4944 4.33921 18.8589 4.44718 19.0306 5.21742C19.206 6.00406 19.3347 6.81068 19.3826 7.61499C19.5934 11.155 19.4899 14.6956 19.3161 18.2346C19.2254 20.0883 19.1284 21.9415 19.0246 23.7943C18.9914 24.3889 18.9279 24.9816 18.8682 25.6924C18.3296 25.6962 17.807 25.7363 17.2902 25.697C14.4426 25.4818 11.6371 25.0118 8.90149 24.1793C8.25442 23.9826 7.63034 23.699 7.01456 23.4147C6.73734 23.287 6.50585 23.059 6.2161 22.8493V22.8491ZM14.4201 12.3515C14.2793 12.5431 14.2148 12.6204 14.162 12.7046C13.0135 14.5351 11.8423 16.3521 10.7284 18.2036C10.0832 19.2756 9.51829 20.3971 8.94238 21.5095C8.65365 22.0671 8.78524 22.4261 9.33292 22.6898C10.3764 23.1921 11.4894 23.4173 12.5973 23.6757C12.9029 23.7475 13.1068 23.6347 13.1645 23.2591C13.3063 22.343 13.5095 21.4366 13.6587 20.5209C13.8586 19.2926 14.0621 18.0637 14.2067 16.8285C14.3588 15.5281 14.4476 14.2198 14.5504 12.9141C14.5619 12.7694 14.4846 12.6177 14.4201 12.3516V12.3515Z" fill="var(--fill-0, #E88826)"/>
<path id="Vector_5" fill-rule="evenodd" clip-rule="evenodd" d="M23.5332 7.42594C23.7793 7.72795 24.0602 8.0083 24.2656 8.33579C25.7959 10.7756 27.3463 13.2039 28.8188 15.6787C29.8373 17.3908 30.7453 19.1693 31.6926 20.9234C31.8632 21.2394 31.9912 21.5791 32.1265 21.9132C32.2344 22.1799 32.2274 22.4196 31.8973 22.5274C30.5722 22.96 29.2262 23.2773 27.7964 23.3221C27.6863 22.6506 27.6281 22.0219 27.4751 21.4171C27.0554 19.7592 26.6421 18.0966 26.141 16.4623C25.4268 14.1343 24.6326 11.8311 23.8812 9.51459C23.7053 8.97245 23.5578 8.42083 23.4119 7.86947C23.3787 7.74421 23.407 7.60307 23.407 7.46885C23.4492 7.45476 23.4913 7.44067 23.5331 7.42633L23.5332 7.42594ZM14.4195 12.3511C14.4841 12.6171 14.5613 12.7689 14.5498 12.9133C14.447 14.219 14.3582 15.5273 14.2062 16.8277C14.0618 18.0631 13.8582 19.2918 13.6581 20.5201C13.5091 21.4354 13.3057 22.3422 13.1642 23.2583C13.1063 23.6341 12.9025 23.7467 12.597 23.6751C11.4893 23.4164 10.3761 23.1915 9.33246 22.6892C8.7849 22.4253 8.65319 22.0665 8.94191 21.5088C9.51808 20.3965 10.083 19.2752 10.7279 18.2029C11.8419 16.3515 13.0131 14.5345 14.1614 12.7038C14.2143 12.6196 14.279 12.5424 14.4195 12.3509V12.3511Z" fill="var(--fill-0, #F7A81F)"/>
</g>
</g>
</svg>
