<svg preserveAspectRatio="none" width="100%" height="100%" overflow="visible" style="display: block;" viewBox="0 0 23 17" fill="none" xmlns="http://www.w3.org/2000/svg">
<g id="quote-right-saying-speech">
<path id="Combined-Shape" d="M17.5 0C20.5376 0 23 2.46243 23 5.5C23 7.74359 21.8321 9.91442 20.0889 10.3333C19.4165 10.4949 18.881 11.3578 18.996 12.3428C19.15 13.6613 20.3424 14.9934 22.7031 16.0431C23.2288 16.2769 23.0087 17.0676 22.4379 16.9961C16.2853 16.2258 12.0205 12.2148 12.0001 6.53984C12 2.63705 14.3058 0 17.5 0Z" fill="var(--fill-0, white)"/>
<path id="Combined-Shape_2" d="M5.49993 0C8.53749 0 10.9999 2.46243 10.9999 5.5C10.9999 7.74359 9.83198 9.91442 8.0888 10.3333C7.41639 10.4949 6.8809 11.3578 6.99596 12.3428C7.14997 13.6613 8.34229 14.9934 10.7031 16.0431C11.2287 16.2769 11.0086 17.0676 10.4378 16.9961C4.28525 16.2258 0.02046 12.2148 1.76622e-09 6.53984C-7.36882e-05 2.63705 2.30572 0 5.49993 0Z" fill="var(--fill-0, white)"/>
</g>
</svg>
